# xmcd CD database file
#
# Track frame offsets:
#	150
#	18385
#	39715
#	55747
#	72172
#	88032
#	106157
#	121900
#	137345
#	156247
#	175900
#	194727
#	211157
#
# Disc length: 3087 seconds
#
# Revision: 0
# Processed by: cddbd v1.5.1PL0 Copyright (c) Steve Scherf et al.
# Submitted via: CDex 1.51
#
DISCID=af0c0d0d
DTITLE=Roller - Impossibly Real
DYEAR=2003
DGENRE=Rock
TTITLE0=Up On The Hill
TTITLE1=Somebody Save Me
TTITLE2=Impossibly Real
TTITLE3=A Thousand Stars
TTITLE4=Coming Around Again
TTITLE5=Bitter Mile
TTITLE6=Send Me An Angel (What I Need Most)
TTITLE7=My Mistake
TTITLE8=Baby Ran
TTITLE9=Miles Wide Open
TTITLE10=She
TTITLE11=Baby Ran (Single Edit)
TTITLE12=Change Of Mind
EXTD=YEAR: 2003
EXTT0=
EXTT1=
EXTT2=
EXTT3=
EXTT4=
EXTT5=
EXTT6=
EXTT7=
EXTT8=
EXTT9=
EXTT10=
EXTT11=
EXTT12=
PLAYORDER=
